.
 
http://www.scenetime.com    -   SceneTime [ We been having it ] !!!


How come you press harder on a remote control when you know the battery is dead? so you better seed to get speed ;)

        Seed back for speed


...................................NFO:.................................................[img]http://leetleech.org/images/02612632092681574197.png[/img]
[img]http://leetleech.org/images/90192636997987495429.png[/img]
[img]http://leetleech.org/images/97580391534231790695.png[/img]
[img]http://leetleech.org/images/31739480173173079869.png[/img]
[img]http://leetleech.org/images/89759581168289104555.png[/img]
[img]http://leetleech.org/images/28965674795005181866.png[/img]
General
Complete name                    : C:\Users\coop\Desktop\976-EVIL.1988.Dvd.Rip.Xvid.TCM\976.e.TCM.avi
Format                           : AVI
Format/Info                      : Audio Video Interleave
File size                        : 800 MiB
Duration                         : 1h 32mn
Overall bit rate                 : 1 211 Kbps
Movie name                       : 976.e.TCM
Encoded by                       : Cooperman
Writing application              : VirtualDubMod 1.5.4.1 (build 2178/release) 
Copyright                        : TCM

Video
ID                               : 0
Format                           : MPEG-4 Visual
Format profile                   : Advanced Simple@L5
Format settings, BVOP            : 1
Format settings, QPel            : No
Format settings, GMC             : No warppoints
Format settings, Matrix          : Custom
Codec ID                         : XVID
Codec ID/Hint                    : XviD
Duration                         : 1h 32mn
Bit rate                         : 1 092 Kbps
Width                            : 688 pixels
Height                           : 400 pixels
Display aspect ratio             : 16:9
Frame rate                       : 23.976 fps
Color space                      : YUV
Chroma subsampling               : 4:2:0
Bit depth                        : 8 bits
Scan type                        : Progressive
Compression mode                 : Lossy
Bits/(Pixel*Frame)               : 0.165
Stream size                      : 721 MiB (90%)
Writing library                  : XviD 64

Audio
ID                               : 1
Format                           : MPEG Audio
Format version                   : Version 1
Format profile                   : Layer 3
Mode                             : Joint stereo
Mode extension                   : MS Stereo
Codec ID                         : 55
Codec ID/Hint                    : MP3
Duration                         : 1h 32mn
Bit rate mode                    : Constant
Bit rate                         : 112 Kbps
Channel(s)                       : 2 channels
Sampling rate                    : 44.1 KHz
Compression mode                 : Lossy
Stream size                      : 74.0 MiB (9%)
Alignment                        : Split accross interleaves
Interleave, duration             : 83 ms (2.00 video frames)
Interleave, preload duration     : 500 ms
Writing library                  : LAME3.98r
Encoding settings                : -m j -V 4 -q 2 -lowpass 15.6 -b 112
Language                         : English
Subs                             : No
Sample                           : Yes 
http://www.imdb.com/title/tt0094597/

*AR was recoded from 4:3 [on dvd] to 16:9 [on avi]*
souce file : 976-EVIL.1988.FS.NTSC.DVD5
THANX FS! :)

57x14.mb rars[main.movie.avi]
sample[avi]
snaps.n.thumbs
sfv
nfo
Enjoy the movie!!

t.c.m@hushmail.com
GREATINGS TO ALL THE P2P PLACES I LURK AT!
AND A FOOK YOU TO ALL RETAGERS!!